<svg xmlns="http://www.w3.org/2000/svg" width="30.525" height="30.525" viewBox="0 0 30.525 30.525">
  <path id="Path_3" data-name="Path 3" d="M26.437,4.968h0A14.839,14.839,0,0,0,16.262,1a16.5,16.5,0,0,0-4.986.814,1.446,1.446,0,0,0-.61.2A15.472,15.472,0,0,0,1,16.262,15.09,15.09,0,0,0,5.273,26.844l.1.1a15.048,15.048,0,0,0,10.887,4.579A15.242,15.242,0,0,0,31.525,16.262,14.93,14.93,0,0,0,26.437,4.968ZM16.262,4.052a11.89,11.89,0,0,1,7.224,2.442,10.671,10.671,0,0,1-5.494,4.07,37.556,37.556,0,0,0-3.866-6.308,15.18,15.18,0,0,1,2.137-.2ZM11.073,5.273a38.266,38.266,0,0,1,3.968,6.308,37.721,37.721,0,0,1-10.175.61A11.939,11.939,0,0,1,11.073,5.273ZM4.052,16.262a4.954,4.954,0,0,1,.1-1.221,27.286,27.286,0,0,0,3.968.2,30.951,30.951,0,0,0,8.14-.916c.2.407.305.814.509,1.221a22.54,22.54,0,0,0-10.48,7.733A12.526,12.526,0,0,1,4.052,16.262Zm12.21,12.21a12.153,12.153,0,0,1-7.733-2.747A19.025,19.025,0,0,1,17.789,18.6a47.793,47.793,0,0,1,1.831,9.361,11.618,11.618,0,0,1-3.358.509Zm3.052-15.059a14.1,14.1,0,0,0,6.512-4.782,12.534,12.534,0,0,1,2.645,6.308,22.047,22.047,0,0,0-8.547-.1A6.013,6.013,0,0,1,19.315,13.413Zm3.358,13.227a52.427,52.427,0,0,0-1.831-8.852,20.78,20.78,0,0,1,7.428.305A12.193,12.193,0,0,1,22.672,26.641Z" transform="translate(-1 -1)"/>
</svg>
